<?xml version="1.0" standalone="no"?><!DOCTYPE svg PUBLIC "-//W3C//DTD SVG 1.1//EN" "http://www.w3.org/Graphics/SVG/1.1/DTD/svg11.dtd"><svg t="1650023897180" class="icon" viewBox="0 0 1024 1024" version="1.1" xmlns="http://www.w3.org/2000/svg" p-id="3207" xmlns:xlink="http://www.w3.org/1999/xlink" width="200" height="200"><defs><style type="text/css"></style></defs><path d="M450.56 665.6v112.64h112.64l325.632-328.704-112.64-112.64L450.56 665.6z m520.192-301.056c12.288-12.288 12.288-29.696 0-40.96L903.168 256c-12.288-12.288-29.696-12.288-40.96 0L808.96 309.248l112.64 112.64 49.152-57.344z" fill="#ffffff" p-id="3208"></path><path d="M368.64 737.28m-40.96 0a40.96 40.96 0 1 0 81.92 0 40.96 40.96 0 1 0-81.92 0Z" fill="#ffffff" p-id="3209"></path><path d="M245.76 737.28m-40.96 0a40.96 40.96 0 1 0 81.92 0 40.96 40.96 0 1 0-81.92 0Z" fill="#ffffff" p-id="3210"></path><path d="M122.88 737.28m-40.96 0a40.96 40.96 0 1 0 81.92 0 40.96 40.96 0 1 0-81.92 0Z" fill="#ffffff" p-id="3211"></path></svg>