<?xml version="1.0" standalone="no"?><!DOCTYPE svg PUBLIC "-//W3C//DTD SVG 1.1//EN" "http://www.w3.org/Graphics/SVG/1.1/DTD/svg11.dtd"><svg t="1649480449493" class="icon" viewBox="0 0 1024 1024" version="1.1" xmlns="http://www.w3.org/2000/svg" p-id="1723" xmlns:xlink="http://www.w3.org/1999/xlink" width="200" height="200"><defs><style type="text/css"></style></defs><path d="M959.588602 247.873188L559.007022 15.903753c-30.145808-20.948782-59.269724-21.459728-88.904585 0L64.922344 247.873188c-14.817431 13.795539-22.481619 33.722429-22.48162 55.182157V967.795952c0 30.145808 22.481619 54.160265 50.072698 54.160264h840.505994c27.591078 0 50.072698-24.525403 50.072697-54.160264V302.544399c-0.510946-20.948782-9.197026-40.875671-23.503511-54.671211zM900.829825 896.263527c0 24.525403-18.394052 44.452293-41.386618 44.452292H165.067739c-22.481619 0-41.386617-19.92689-41.386618-44.452292V350.573313c0-17.37216 7.153243-33.722429 18.904998-44.963239l334.158614-190.582818c25.036349-16.350269 50.072698-16.861214 73.576209 0l331.092939 190.582818c12.262701 11.24081 18.904998 27.591078 18.904998 44.963239V896.263527z" p-id="1724" fill="#eedecc"></path><path d="M698.495251 817.066913h-367.881043c-22.481619 0-40.875671-18.394052-40.875671-40.875671s18.394052-40.875671 40.875671-40.875672h367.881043c22.481619 0 40.875671 18.394052 40.875671 40.875672s-18.394052 40.875671-40.875671 40.875671z" p-id="1725" fill="#eedecc"></path></svg>