<?xml version="1.0" standalone="no"?><!DOCTYPE svg PUBLIC "-//W3C//DTD SVG 1.1//EN" "http://www.w3.org/Graphics/SVG/1.1/DTD/svg11.dtd"><svg t="1649480076236" class="icon" viewBox="0 0 1027 1024" version="1.1" xmlns="http://www.w3.org/2000/svg" p-id="980" xmlns:xlink="http://www.w3.org/1999/xlink" width="200.5859375" height="200"><defs><style type="text/css"></style></defs><path d="M817.57509 612.151697H204.401437c-112.926148 0-204.391218 91.46507-204.391217 204.391217s91.46507 204.391218 204.391217 204.391218h613.173653c112.926148 0 204.391218-91.46507 204.391217-204.391218 0-112.41517-91.46507-204.391218-204.391217-204.391217z m122.63473 204.391217c0 67.96008-54.674651 122.634731-122.63473 122.634731H204.401437c-67.96008 0-122.634731-54.674651-122.63473-122.634731s54.674651-122.634731 122.63473-122.63473h613.173653c67.96008 0 122.634731 55.185629 122.63473 122.63473zM510.988263 0c-146.650699 0-265.708583 119.057884-265.708582 265.708583s119.057884 265.708583 265.708582 265.708583 265.708583-119.057884 265.708583-265.708583c0-147.161677-119.057884-265.708583-265.708583-265.708583z m0 449.660679c-101.684631 0-183.952096-82.267465-183.952095-183.952096s82.267465-183.952096 183.952095-183.952096 183.952096 82.267465 183.952096 183.952096c0 101.173653-82.267465 183.952096-183.952096 183.952096z" p-id="981" fill="#eedecc"></path></svg>